<mxfile host="app.diagrams.net" modified="2024-07-04T01:55:21.482Z" agent="Mozilla/5.0 (Macintosh; Intel Mac OS X 10_15_7) AppleWebKit/605.1.15 (KHTML, like Gecko) Version/17.3.1 Safari/605.1.15" version="24.6.4" etag="3CxdbKppKdr3EM6uIBMv" type="github">
  <diagram name="Page-1" id="CSq9gCIMowh4JgRdvS-1">
    <mxGraphModel>
      <root>
        <mxCell id="0" />
        <mxCell id="1" parent="0" />
      </root>
    </mxGraphModel>
  </diagram>
</mxfile>
